<?xml version="1.0"?>
<svg xmlns="http://www.w3.org/2000/svg" height="512px" viewBox="-58 0 512 512" width="512px"><g><path d="m113.203125 442.691406h-.3125c-4.144531 0-7.503906-3.355468-7.503906-7.5 0-4.140625 3.359375-7.5 7.503906-7.5h.3125c4.140625 0 7.5 3.359375 7.5 7.5 0 4.144532-3.359375 7.5-7.5 7.5zm0 0" data-original="#000000" class="active-path" data-old_color="#000000" fill="#0FFF66"/><path d="m141.714844 442.691406h-.316406c-4.140626 0-7.5-3.355468-7.5-7.5 0-4.140625 3.359374-7.5 7.5-7.5h.316406c4.140625 0 7.5 3.359375 7.5 7.5 0 4.144532-3.359375 7.5-7.5 7.5zm0 0" data-original="#000000" class="active-path" data-old_color="#000000" fill="#0FFF66"/><path d="m170.253906 442.691406h-.316406c-4.140625 0-7.5-3.355468-7.5-7.5 0-4.140625 3.359375-7.5 7.5-7.5h.316406c4.140625 0 7.5 3.359375 7.5 7.5 0 4.144532-3.359375 7.5-7.5 7.5zm0 0" data-original="#000000" class="active-path" data-old_color="#000000" fill="#0FFF66"/><path d="m382.507812 302.003906h-14.714843l-.011719-278.316406c0-13.0625-10.636719-23.6875-23.714844-23.6875h-108.367187c-13.085938 0-23.726563 10.625-23.726563 23.6875v24.839844h-1.550781c-10.894531 0-19.757813 8.859375-19.757813 19.75v26.230468h-149.914062c-22.46875 0-40.75 18.28125-40.75 40.75v335.988282c0 22.472656 18.28125 40.753906 40.75 40.753906h209.359375c22.484375 0 40.777344-18.28125 40.777344-40.753906v-167.980469c0-4.140625-3.359375-7.5-7.5-7.5-4.144531 0-7.5 3.359375-7.5 7.5v167.980469c0 14.199218-11.5625 25.75-25.777344 25.75h-209.359375c-14.199219 0-25.746094-11.550782-25.746094-25.75v-335.988282c0-14.199218 11.546875-25.75 25.746094-25.75h209.359375c14.214844 0 25.777344 11.550782 25.777344 25.75v130.875c0 4.144532 3.355469 7.5 7.5 7.5 4.140625 0 7.5-3.355468 7.5-7.5v-130.875c0-22.46875-18.292969-40.75-40.777344-40.75h-.753906v-26.230468c0-10.890625-8.863281-19.75-19.757813-19.75h-2.625v-24.839844c0-4.789062 3.914063-8.6875 8.726563-8.6875h108.367187c4.804688 0 8.714844 3.894531 8.714844 8.6875l.011719 278.316406h-14.398438c-6.90625 0-12.523437 5.601563-12.523437 12.488282v39.117187c0 6.074219 4.351562 11.148437 10.101562 12.28125v23.492187c0 6.902344 5.601563 12.519532 12.492188 12.519532h23.972656c6.886719 0 12.492188-5.617188 12.492188-12.519532v-23.496093c5.734374-1.132813 10.070312-6.203125 10.070312-12.277344v-39.117187c0-6.886719-5.605469-12.488282-12.492188-12.488282zm-148.15625-233.726562v26.230468h-28.683593v-26.230468c0-2.617188 2.132812-4.746094 4.753906-4.746094h19.179687c2.574219 0 4.75 2.171875 4.75 4.746094zm106.519532 248.726562h39.125v34.125h-39.125zm10.101562 69.898438v-20.773438h18.953125v20.773438zm0 0" data-original="#000000" class="active-path" data-old_color="#000000" fill="#0FFF66"/><path d="m125.707031 394.332031c-4.089843 0-7.738281-1.234375-10.535156-3.050781-7.71875-5.003906-10.859375-14.550781-7.527344-22.777344l19.113281-53.746094c.019532-.054687.039063-.105468.0625-.160156 1.441407-3.78125 4.320313-11.324218 4.234376-14.324218-.378907-.070313-.957032-.132813-1.796876-.132813h-23.65625c-7.191406 0-13.945312-4.113281-17.203124-10.480469-3.660157-7.140625-2.5-15.777344 3.183593-23.707031l15.082031-21.828125 44.386719-64.105469c7.007813-10.832031 19.4375-12.402343 28.132813-8.335937 8.449218 3.949218 12.320312 12.332031 9.625 20.855468-.023438.082032-.050782.164063-.082032.242188l-18.390624 51.945312c-1.601563 5.640626-1.160157 8.988282-.203126 10.246094.898438 1.183594 3.429688 1.839844 6.890626 1.789063h13.34375c.144531 0 .292968.003906.4375.011719 8.992187.527343 13.113281 5.003906 14.984374 8.667968 4.484376 8.757813.878907 22.113282-11.019531 40.832032l-49.535156 77.785156c-.253906.394531-.539063.761718-.855469 1.101562-6.308594 6.722656-12.921875 9.171875-18.671875 9.171875zm13.199219-14.300781h.007812zm1.957031-60.164062-19.144531 53.832031c-.046875.132812-.101562.261719-.152344.390625-.714844 1.703125.335938 3.679687 1.765625 4.605468 2.445313 1.589844 6.023438.339844 9.648438-3.324218l49.128906-77.152344c11.054687-17.382812 10.957031-24.882812 10.324219-25.949219-.003906-.007812-.519532-.375-2.3125-.503906h-13.003906c-8.542969.101563-14.945313-2.484375-18.921876-7.707031-4.304687-5.648438-5.070312-13.847656-2.210937-23.710938.039063-.136718.082031-.277344.132813-.414062l18.421874-52.023438c.1875-.617187.378907-1.664062-1.710937-2.640625-1.949219-.910156-6.394531-1.46875-9.222656 2.953125-.046875.078125-.097657.15625-.152344.230469l-44.453125 64.203125-15.117188 21.878906c-.027343.039063-.054687.082032-.082031.121094-2.316406 3.214844-3.0625 6.191406-2.050781 8.164062.707031 1.386719 2.257812 2.316407 3.851562 2.316407h23.65625c6.570313 0 11.355469 2.117187 14.234376 6.292969 5.28125 7.667968 1.273437 18.222656-2.628907 28.4375zm-9.210937-19.4375" data-original="#000000" class="active-path" data-old_color="#000000" fill="#0FFF66"/></g> </svg>
